<?xml version="1.0" encoding="UTF-8"?>
<svg width="198px" height="35px" viewBox="0 0 198 35" version="1.1" xmlns="http://www.w3.org/2000/svg" xmlns:xlink="http://www.w3.org/1999/xlink">
    <!-- Generator: Sketch 46 (44423) - http://www.bohemiancoding.com/sketch -->
    <title>logo-footer</title>
    <desc>Created with Sketch.</desc>
    <defs></defs>
    <g id="Symbols" stroke="none" stroke-width="1" fill="none" fill-rule="evenodd">
        <g id="Footer" transform="translate(-115.000000, -714.000000)">
            <g id="Group-2">
                <g transform="translate(0.000000, 527.000000)">
                    <g id="logo-footer" transform="translate(115.000000, 187.000000)">
                        <g id="Group" transform="translate(0.603448, 24.741379)" fill="#AF8C55">
                            <g id="Allgemein_Logo_Arlberger_Bergbahnen_0_Layer0_0_FILL-link">
                                <g id="Allgemein_Logo_Arlberger_Bergbahnen_0_Layer0_0_FILL">
                                    <path d="M0.0905172414,5.06896552 L4.94827586,5.06896552 C6.15517241,5.06896552 6.75862069,4.74712644 6.75862069,4.10344828 L6.75862069,3.43965517 C6.75862069,2.89655172 6.37643678,2.56465517 5.61206897,2.44396552 C6.3362069,2.42385057 6.69827586,2.14224138 6.69827586,1.59913793 L6.69827586,1.02586207 C6.69827586,0.724137931 6.59770115,0.482758621 6.39655172,0.301724138 C6.11494253,0.140804598 5.75287356,0.0603448276 5.31034483,0.0603448276 L0.0905172414,0.0603448276 L0.0905172414,5.06896552 L0.0905172414,5.06896552 Z M4.91810345,0.724137931 L5.43103448,0.814655172 C5.55172414,0.895114943 5.61206897,1.0158046 5.61206897,1.17672414 L5.61206897,1.68965517 C5.61206897,1.97126437 5.38074713,2.11206897 4.91810345,2.11206897 L1.17672414,2.11206897 L1.17672414,0.724137931 L4.91810345,0.724137931 L4.91810345,0.724137931 Z M1.17672414,4.34482759 L1.17672414,2.77586207 L4.91810345,2.77586207 C5.13936782,2.77586207 5.3204023,2.80603448 5.4612069,2.86637931 C5.56178161,2.96695402 5.61206897,3.13793103 5.61206897,3.37931034 L5.61206897,3.77155172 C5.61206897,3.99281609 5.56178161,4.15373563 5.4612069,4.25431034 C5.40086207,4.31465517 5.21982759,4.34482759 4.91810345,4.34482759 L1.17672414,4.34482759 L1.17672414,4.34482759 Z M42.0603448,5.06896552 L42.0603448,3.10775862 L44.0215517,3.10775862 L46.6767241,5.06896552 L48.2456897,5.06896552 L45.2887931,3.10775862 L46.2543103,3.10775862 C46.7772989,3.10775862 47.1192529,3.02729885 47.2801724,2.86637931 C47.5215517,2.72557471 47.6422414,2.4841954 47.6422414,2.14224138 L47.6422414,1.02586207 C47.6422414,0.683908046 47.5215517,0.442528736 47.2801724,0.301724138 C47.0387931,0.140804598 46.6968391,0.0603448276 46.2543103,0.0603448276 L41.0043103,0.0603448276 L41.0043103,5.06896552 L42.0603448,5.06896552 L42.0603448,5.06896552 Z M42.0603448,2.44396552 L42.0603448,0.724137931 L45.8017241,0.724137931 C46.0431034,0.724137931 46.2341954,0.754310345 46.375,0.814655172 C46.4755747,0.915229885 46.5258621,1.05603448 46.5258621,1.23706897 L46.5258621,1.9612069 C46.5258621,2.18247126 46.4755747,2.31321839 46.375,2.35344828 C46.2945402,2.4137931 46.1034483,2.44396552 45.8017241,2.44396552 L42.0603448,2.44396552 L42.0603448,2.44396552 Z M27.4568966,0.724137931 L27.4568966,0.0603448276 L21.2112069,0.0603448276 L21.2112069,5.06896552 L27.5474138,5.06896552 L27.5474138,4.34482759 L22.2974138,4.34482759 L22.2974138,2.80603448 L25.4655172,2.80603448 L25.4655172,2.11206897 L22.2974138,2.11206897 L22.2974138,0.724137931 L27.4568966,0.724137931 L27.4568966,0.724137931 Z M63.4827586,4.34482759 L63.4827586,0.784482759 L68.612069,0.784482759 L68.612069,1.47844828 L69.6681034,1.32758621 L69.6681034,1.17672414 C69.6681034,0.774425287 69.5474138,0.482758621 69.3060345,0.301724138 C69.0847701,0.140804598 68.6925287,0.0603448276 68.1293103,0.0603448276 L63.9051724,0.0603448276 C63.362069,0.0603448276 62.9698276,0.140804598 62.7284483,0.301724138 C62.487069,0.442528736 62.3663793,0.754310345 62.3663793,1.23706897 L62.3663793,3.89224138 C62.3663793,4.35488506 62.487069,4.6566092 62.7284483,4.79741379 C62.9698276,4.97844828 63.362069,5.06896552 63.9051724,5.06896552 L68.1293103,5.06896552 C68.6925287,5.06896552 69.0847701,4.97844828 69.3060345,4.79741379 C69.5474138,4.6566092 69.6681034,4.35488506 69.6681034,3.89224138 L69.6681034,2.26293103 L65.9568966,2.26293103 L65.9568966,2.92672414 L68.612069,2.92672414 L68.612069,4.34482759 L63.4827586,4.34482759 L63.4827586,4.34482759 Z M83.6681034,0.0603448276 L83.6681034,5.06896552 L88.5258621,5.06896552 C89.7327586,5.06896552 90.3362069,4.74712644 90.3362069,4.10344828 L90.3362069,3.43965517 C90.3362069,2.89655172 89.954023,2.56465517 89.1896552,2.44396552 C89.954023,2.42385057 90.3362069,2.14224138 90.3362069,1.59913793 L90.3362069,1.02586207 C90.3362069,0.683908046 90.2155172,0.442528736 89.9741379,0.301724138 C89.7327586,0.140804598 89.3908046,0.0603448276 88.9482759,0.0603448276 L83.6681034,0.0603448276 L83.6681034,0.0603448276 Z M84.7543103,2.11206897 L84.7543103,0.724137931 L88.5258621,0.724137931 L89.0387931,0.814655172 C89.1393678,0.895114943 89.1896552,1.0158046 89.1896552,1.17672414 L89.1896552,1.68965517 C89.1896552,1.97126437 88.9683908,2.11206897 88.5258621,2.11206897 L84.7543103,2.11206897 L84.7543103,2.11206897 Z M84.7543103,4.34482759 L84.7543103,2.77586207 L88.5258621,2.77586207 C88.7672414,2.77586207 88.9583333,2.80603448 89.0991379,2.86637931 C89.1997126,2.96695402 89.25,3.13793103 89.25,3.37931034 L89.25,3.77155172 C89.25,3.99281609 89.1997126,4.15373563 89.0991379,4.25431034 C89.0387931,4.31465517 88.8477011,4.34482759 88.5258621,4.34482759 L84.7543103,4.34482759 L84.7543103,4.34482759 Z M105.362069,3.83189655 L109.767241,3.83189655 L110.612069,5.06896552 L111.788793,5.06896552 L108.168103,0.0603448276 L106.991379,0.0603448276 L103.461207,5.06896552 L104.547414,5.06896552 L105.362069,3.83189655 L105.362069,3.83189655 Z M105.814655,3.22844828 L107.564655,0.663793103 L109.344828,3.22844828 L105.814655,3.22844828 L105.814655,3.22844828 Z M126.875,2.11206897 L126.875,0.0603448276 L125.758621,0.0603448276 L125.758621,5.06896552 L126.875,5.06896552 L126.875,2.80603448 L132.00431,2.80603448 L132.00431,5.06896552 L133.060345,5.06896552 L133.060345,0.0603448276 L132.00431,0.0603448276 L132.00431,2.11206897 L126.875,2.11206897 L126.875,2.11206897 Z M148.357759,2.11206897 L148.237069,1.02586207 L148.599138,1.38793103 L153.909483,5.06896552 L154.543103,5.06896552 L154.543103,0.0603448276 L153.577586,0.0603448276 L153.607759,4.04310345 L152.913793,3.37931034 L148.056034,0.0603448276 L147.331897,0.0603448276 L147.331897,5.06896552 L148.357759,5.06896552 L148.357759,2.11206897 L148.357759,2.11206897 Z M176.056034,0.724137931 L176.056034,0.0603448276 L169.780172,0.0603448276 L169.780172,5.06896552 L176.116379,5.06896552 L176.116379,4.34482759 L170.836207,4.34482759 L170.836207,2.80603448 L174.064655,2.80603448 L174.064655,2.11206897 L170.836207,2.11206897 L170.836207,0.724137931 L176.056034,0.724137931 L176.056034,0.724137931 Z M196.392241,4.04310345 L195.637931,3.37931034 L190.780172,0.0603448276 L190.056034,0.0603448276 L190.056034,5.06896552 L191.081897,5.06896552 L190.991379,1.02586207 L191.353448,1.38793103 L196.663793,5.06896552 L197.267241,5.06896552 L197.267241,0.0603448276 L196.301724,0.0603448276 L196.301724,2.80603448 C196.301724,3.4295977 196.331897,3.84195402 196.392241,4.04310345 Z" id="Shape"></path>
                                </g>
                            </g>
                        </g>
                        <g id="Group" transform="translate(22.583477, 0.000000)" fill="#FFFFFF">
                            <g id="Allgemein_Logo_Arlberger_Bergbahnen_0_Layer0_0_MEMBER_0_MEMBER_0_FILL-link">
                                <g id="Allgemein_Logo_Arlberger_Bergbahnen_0_Layer0_0_MEMBER_0_MEMBER_0_FILL">
                                    <path d="M10.7863967,11.5329126 L17.8410068,6.07263979 C18.7270931,5.35821158 19.1701363,4.45667122 19.1701363,3.36801871 C19.1701363,2.44946815 18.846374,1.66699916 18.1988494,1.02061173 C17.5513248,0.374224301 16.7845193,0.0510305865 15.898433,0.0510305865 L0.255601817,0.0510305865 L0.255601817,8.93035264 L4.24299016,8.87932205 L4.24299016,4.13347751 L13.649137,4.13347751 L0.255601817,14.5437172 L0.255601817,19.6978064 L7.46357306,14.0844419 L14.6715443,19.6978064 L21.3171916,19.6978064 L10.7863967,11.5329126 Z" id="Shape"></path>
                                </g>
                            </g>
                        </g>
                        <g id="Group" transform="translate(175.944567, 0.000000)" fill="#FFFFFF">
                            <g id="Allgemein_Logo_Arlberger_Bergbahnen_0_Layer0_0_MEMBER_0_MEMBER_1_FILL-link">
                                <g id="Allgemein_Logo_Arlberger_Bergbahnen_0_Layer0_0_MEMBER_0_MEMBER_1_FILL">
                                    <path d="M21.9817563,19.6978064 L11.4509614,11.5329126 L18.5055716,6.07263979 C19.3575776,5.39223197 19.7835806,4.49069161 19.7835806,3.36801871 C19.7835806,2.44946815 19.4768585,1.66699916 18.8634141,1.02061173 C18.2158895,0.374224301 17.4490841,0.0510305865 16.5629978,0.0510305865 L0.920166542,0.0510305865 L0.920166542,8.93035264 L4.90755489,8.87932205 L4.90755489,4.13347751 L14.3137018,4.13347751 L0.920166542,14.5437172 L0.920166542,19.6978064 L8.12813779,14.0844419 L15.336109,19.6978064 L21.9817563,19.6978064 Z" id="Shape"></path>
                                </g>
                            </g>
                        </g>
                        <g id="Group" transform="translate(0.090517, 0.000000)" fill="#FFFFFF">
                            <g id="Allgemein_Logo_Arlberger_Bergbahnen_0_Layer0_0_MEMBER_0_MEMBER_2_FILL-link">
                                <g id="Allgemein_Logo_Arlberger_Bergbahnen_0_Layer0_0_MEMBER_0_MEMBER_2_FILL">
                                    <path d="M16.460757,0.0510305865 C15.4042695,0.0510305865 14.5181832,0.510305865 13.8024981,1.42885642 C13.8365784,1.42885642 9.42318699,7.51850641 0.562323998,19.6978064 L5.57211961,19.6978064 L15.6939516,5.76645628 L15.6939516,15.5643289 L8.58822106,15.5643289 L13.9047389,19.6978064 L19.6813399,19.6978064 L19.6813399,3.4190493 C19.6813399,2.50049874 19.3746177,1.71802975 18.7611734,1.07164232 C18.1136488,0.391234497 17.3468433,0.0510305865 16.460757,0.0510305865 Z" id="Shape"></path>
                                </g>
                            </g>
                        </g>
                        <g id="Group" transform="translate(46.098844, 0.000000)" fill="#FFFFFF">
                            <g id="Allgemein_Logo_Arlberger_Bergbahnen_0_Layer0_0_MEMBER_0_MEMBER_3_FILL-link">
                                <g id="Allgemein_Logo_Arlberger_Bergbahnen_0_Layer0_0_MEMBER_0_MEMBER_3_FILL">
                                    <path d="M3.88514762,19.6467758 L15.6939516,19.6467758 L15.6939516,15.5132983 L4.60083271,15.5132983 L4.60083271,0 L0.613444361,0 L0.613444361,16.2787571 C0.613444361,17.1973077 0.937206663,17.9967868 1.58473127,18.6771947 C2.23225587,19.3235821 2.99906132,19.6467758 3.88514762,19.6467758 Z" id="Shape"></path>
                                </g>
                            </g>
                        </g>
                        <g id="Group" transform="translate(64.502175, 0.000000)" fill="#FFFFFF">
                            <g id="Allgemein_Logo_Arlberger_Bergbahnen_0_Layer0_0_MEMBER_0_MEMBER_4_FILL-link">
                                <g id="Allgemein_Logo_Arlberger_Bergbahnen_0_Layer0_0_MEMBER_0_MEMBER_4_FILL">
                                    <path d="M18.3522105,1.07164232 C17.7046859,0.391234497 16.9378804,0.0510305865 16.0517941,0.0510305865 L0.306722181,0.0510305865 L0.306722181,4.18450809 L13.8024981,4.18450809 L6.49228616,9.8489032 L13.8024981,15.5132983 L4.29411053,15.5132983 L4.29411053,9.8489032 L0.306722181,9.8489032 L0.306722181,19.6467758 L16.0517941,19.6467758 C16.9378804,19.6467758 17.7046859,19.3235821 18.3522105,18.6771947 C18.9997351,17.9967868 19.3234974,17.1973077 19.3234974,16.2787571 C19.3234974,15.1560842 18.8804542,14.2545438 17.9943679,13.574136 L13.1379334,9.8489032 L17.9943679,6.12367038 C18.8804542,5.47728295 19.3234974,4.57574259 19.3234974,3.4190493 C19.3234974,2.50049874 18.9997351,1.71802975 18.3522105,1.07164232 Z" id="Shape"></path>
                                </g>
                            </g>
                        </g>
                        <g id="Group" transform="translate(85.972728, 0.000000)" fill="#FFFFFF">
                            <g id="Allgemein_Logo_Arlberger_Bergbahnen_0_Layer0_0_MEMBER_0_MEMBER_5_FILL-link">
                                <g id="Allgemein_Logo_Arlberger_Bergbahnen_0_Layer0_0_MEMBER_0_MEMBER_5_FILL">
                                    <path d="M19.8858214,19.6978064 L19.8858214,15.5643289 L4.85643453,15.5643289 L4.85643453,11.9411572 L19.834701,11.9411572 L19.834701,7.80767974 L4.85643453,7.80767974 L4.85643453,4.18450809 L19.8858214,4.18450809 L19.8858214,0.0510305865 L4.08962907,0.0510305865 C3.20354278,0.0510305865 2.43673732,0.391234497 1.78921272,1.07164232 C1.17576836,1.71802975 0.869046178,2.50049874 0.869046178,3.4190493 L0.869046178,16.3297877 C0.869046178,17.2483382 1.17576836,18.0478174 1.78921272,18.7282252 C2.43673732,19.3746127 3.20354278,19.6978064 4.08962907,19.6978064 L19.8858214,19.6978064 Z" id="Shape"></path>
                                </g>
                            </g>
                        </g>
                        <g id="Group" transform="translate(131.981055, 0.000000)" fill="#FFFFFF">
                            <g id="Allgemein_Logo_Arlberger_Bergbahnen_0_Layer0_0_MEMBER_0_MEMBER_6_FILL-link">
                                <g id="Allgemein_Logo_Arlberger_Bergbahnen_0_Layer0_0_MEMBER_0_MEMBER_6_FILL">
                                    <path d="M18.8634141,18.6771947 C19.5109387,17.9967868 19.834701,17.1973077 19.834701,16.2787571 C19.834701,15.1901046 19.3916579,14.2885642 18.5055716,13.574136 L13.649137,9.8489032 L6.95236943,9.8489032 L14.3137018,15.5132983 L4.80531416,15.5132983 L4.80531416,4.13347751 L17.8410068,4.13347751 L17.8410068,0 L4.03850871,0 C3.15242241,0 2.38561696,0.34020391 1.73809236,1.02061173 C1.09056775,1.66699916 0.766805451,2.44946815 0.766805451,3.36801871 L0.766805451,16.2787571 C0.766805451,17.1973077 1.09056775,17.9967868 1.73809236,18.6771947 C2.38561696,19.3235821 3.15242241,19.6467758 4.03850871,19.6467758 L16.5629978,19.6467758 C17.4490841,19.6467758 18.2158895,19.3235821 18.8634141,18.6771947 Z" id="Shape"></path>
                                </g>
                            </g>
                        </g>
                        <g id="Group" transform="translate(154.474015, 0.000000)" fill="#FFFFFF">
                            <g id="Allgemein_Logo_Arlberger_Bergbahnen_0_Layer0_0_MEMBER_0_MEMBER_7_FILL-link">
                                <g id="Allgemein_Logo_Arlberger_Bergbahnen_0_Layer0_0_MEMBER_0_MEMBER_7_FILL">
                                    <path d="M19.3746177,4.18450809 L19.3746177,0.0510305865 L3.57842544,0.0510305865 C2.69233914,0.0510305865 1.92553369,0.391234497 1.27800909,1.07164232 C0.664564725,1.71802975 0.357842544,2.50049874 0.357842544,3.4190493 L0.357842544,16.3297877 C0.357842544,17.2483382 0.664564725,18.0478174 1.27800909,18.7282252 C1.92553369,19.3746127 2.69233914,19.6978064 3.57842544,19.6978064 L19.3746177,19.6978064 L19.3746177,15.5643289 L4.34523089,15.5643289 L4.34523089,11.9411572 L19.3234974,11.9411572 L19.3234974,7.80767974 L4.34523089,7.80767974 L4.34523089,4.18450809 L19.3746177,4.18450809 Z" id="Shape"></path>
                                </g>
                            </g>
                        </g>
                        <g id="Group" transform="translate(108.465688, 0.000000)" fill="#FFFFFF">
                            <g id="Allgemein_Logo_Arlberger_Bergbahnen_0_Layer0_0_MEMBER_0_MEMBER_8_FILL-link">
                                <g id="Allgemein_Logo_Arlberger_Bergbahnen_0_Layer0_0_MEMBER_0_MEMBER_8_FILL">
                                    <path d="M17.9943679,6.07263979 C18.846374,5.39223197 19.272377,4.49069161 19.272377,3.36801871 C19.272377,2.44946815 18.9656548,1.66699916 18.3522105,1.02061173 C17.7046859,0.374224301 16.9378804,0.0510305865 16.0517941,0.0510305865 L0.357842544,0.0510305865 L0.357842544,8.93035264 L4.39635126,8.87932205 L4.39635126,4.13347751 L13.8024981,4.13347751 L0.357842544,14.5437172 L0.357842544,19.6978064 L7.61693415,14.0844419 L14.8249054,19.6978064 L21.4705526,19.6978064 L10.9397578,11.5329126 L17.9943679,6.07263979 Z" id="Shape"></path>
                                </g>
                            </g>
                        </g>
                        <g id="Group" transform="translate(0.090517, 33.551724)" stroke="#AF8C55">
                            <g id="Allgemein_Logo_Arlberger_Bergbahnen_0_Layer0_0_MEMBER_1_MEMBER_0_1_STROKES-link">
                                <path d="M0.512931034,0.392241379 L197.840517,0.392241379" id="Allgemein_Logo_Arlberger_Bergbahnen_0_Layer0_0_MEMBER_1_MEMBER_0_1_STROKES"></path>
                            </g>
                        </g>
                    </g>
                </g>
            </g>
        </g>
    </g>
</svg>