<?xml version="1.0" encoding="UTF-8"?>
<svg width="199px" height="59px" viewBox="0 0 199 59" version="1.1" xmlns="http://www.w3.org/2000/svg" xmlns:xlink="http://www.w3.org/1999/xlink">
    <!-- Generator: Sketch 46.1 (44463) - http://www.bohemiancoding.com/sketch -->
    <title>Group</title>
    <desc>Created with Sketch.</desc>
    <defs>
        <polygon id="path-1" points="3.20659668 0.0711954545 0.249429946 0.0711954545 0.249429946 3.43693552 3.20659668 3.43693552 3.20659668 0.0711954545"></polygon>
        <polygon id="path-3" points="1.99808236 4.70454545 3.92004187 4.70454545 3.92004187 0.225818182 0.0761228469 0.225818182 0.0761228469 4.70454545"></polygon>
        <polygon id="path-5" points="3.8590659e-20 0.196974572 3.8590659e-20 10.2014334 34.4828903 10.2014334 34.4828903 0.196974572 0 0.196974572"></polygon>
    </defs>
    <g id="Symbols" stroke="none" stroke-width="1" fill="none" fill-rule="evenodd">
        <g id="Logo" transform="translate(-37.000000, -25.000000)">
            <g id="Group" transform="translate(37.000000, 25.000000)">
                <path d="M0.935344828,29.8103448 L5.79310345,29.8103448 C7,29.8103448 7.60344828,29.4885057 7.60344828,28.8448276 L7.60344828,28.1810345 C7.60344828,27.637931 7.22126437,27.3060345 6.45689655,27.1853448 C7.18103448,27.1652299 7.54310345,26.8836207 7.54310345,26.3405172 L7.54310345,25.7672414 C7.54310345,25.4655172 7.44252874,25.2241379 7.24137931,25.0431034 C6.95977011,24.8821839 6.59770115,24.8017241 6.15517241,24.8017241 L0.935344828,24.8017241 L0.935344828,29.8103448 L0.935344828,29.8103448 Z M5.76293103,25.4655172 L6.27586207,25.5560345 C6.39655172,25.6364943 6.45689655,25.7571839 6.45689655,25.9181034 L6.45689655,26.4310345 C6.45689655,26.7126437 6.22557471,26.8534483 5.76293103,26.8534483 L2.02155172,26.8534483 L2.02155172,25.4655172 L5.76293103,25.4655172 L5.76293103,25.4655172 Z M2.02155172,29.0862069 L2.02155172,27.5172414 L5.76293103,27.5172414 C5.9841954,27.5172414 6.16522989,27.5474138 6.30603448,27.6077586 C6.4066092,27.7083333 6.45689655,27.8793103 6.45689655,28.1206897 L6.45689655,28.512931 C6.45689655,28.7341954 6.4066092,28.8951149 6.30603448,28.9956897 C6.24568966,29.0560345 6.06465517,29.0862069 5.76293103,29.0862069 L2.02155172,29.0862069 L2.02155172,29.0862069 Z M42.9051724,29.8103448 L42.9051724,27.8491379 L44.8663793,27.8491379 L47.5215517,29.8103448 L49.0905172,29.8103448 L46.1336207,27.8491379 L47.0991379,27.8491379 C47.6221264,27.8491379 47.9640805,27.7686782 48.125,27.6077586 C48.3663793,27.466954 48.487069,27.2255747 48.487069,26.8836207 L48.487069,25.7672414 C48.487069,25.4252874 48.3663793,25.183908 48.125,25.0431034 C47.8836207,24.8821839 47.5416667,24.8017241 47.0991379,24.8017241 L41.8491379,24.8017241 L41.8491379,29.8103448 L42.9051724,29.8103448 L42.9051724,29.8103448 Z M42.9051724,27.1853448 L42.9051724,25.4655172 L46.6465517,25.4655172 C46.887931,25.4655172 47.079023,25.4956897 47.2198276,25.5560345 C47.3204023,25.6566092 47.3706897,25.7974138 47.3706897,25.9784483 L47.3706897,26.7025862 C47.3706897,26.9238506 47.3204023,27.0545977 47.2198276,27.0948276 C47.1393678,27.1551724 46.9482759,27.1853448 46.6465517,27.1853448 L42.9051724,27.1853448 L42.9051724,27.1853448 Z M28.3017241,25.4655172 L28.3017241,24.8017241 L22.0560345,24.8017241 L22.0560345,29.8103448 L28.3922414,29.8103448 L28.3922414,29.0862069 L23.1422414,29.0862069 L23.1422414,27.5474138 L26.3103448,27.5474138 L26.3103448,26.8534483 L23.1422414,26.8534483 L23.1422414,25.4655172 L28.3017241,25.4655172 L28.3017241,25.4655172 Z M64.3275862,29.0862069 L64.3275862,25.5258621 L69.4568966,25.5258621 L69.4568966,26.2198276 L70.512931,26.0689655 L70.512931,25.9181034 C70.512931,25.5158046 70.3922414,25.2241379 70.1508621,25.0431034 C69.9295977,24.8821839 69.5373563,24.8017241 68.9741379,24.8017241 L64.75,24.8017241 C64.2068966,24.8017241 63.8146552,24.8821839 63.5732759,25.0431034 C63.3318966,25.183908 63.2112069,25.4956897 63.2112069,25.9784483 L63.2112069,28.6336207 C63.2112069,29.0962644 63.3318966,29.3979885 63.5732759,29.5387931 C63.8146552,29.7198276 64.2068966,29.8103448 64.75,29.8103448 L68.9741379,29.8103448 C69.5373563,29.8103448 69.9295977,29.7198276 70.1508621,29.5387931 C70.3922414,29.3979885 70.512931,29.0962644 70.512931,28.6336207 L70.512931,27.0043103 L66.8017241,27.0043103 L66.8017241,27.6681034 L69.4568966,27.6681034 L69.4568966,29.0862069 L64.3275862,29.0862069 L64.3275862,29.0862069 Z M84.512931,24.8017241 L84.512931,29.8103448 L89.3706897,29.8103448 C90.5775862,29.8103448 91.1810345,29.4885057 91.1810345,28.8448276 L91.1810345,28.1810345 C91.1810345,27.637931 90.7988506,27.3060345 90.0344828,27.1853448 C90.7988506,27.1652299 91.1810345,26.8836207 91.1810345,26.3405172 L91.1810345,25.7672414 C91.1810345,25.4252874 91.0603448,25.183908 90.8189655,25.0431034 C90.5775862,24.8821839 90.2356322,24.8017241 89.7931034,24.8017241 L84.512931,24.8017241 L84.512931,24.8017241 Z M85.5991379,26.8534483 L85.5991379,25.4655172 L89.3706897,25.4655172 L89.8836207,25.5560345 C89.9841954,25.6364943 90.0344828,25.7571839 90.0344828,25.9181034 L90.0344828,26.4310345 C90.0344828,26.7126437 89.8132184,26.8534483 89.3706897,26.8534483 L85.5991379,26.8534483 L85.5991379,26.8534483 Z M85.5991379,29.0862069 L85.5991379,27.5172414 L89.3706897,27.5172414 C89.612069,27.5172414 89.8031609,27.5474138 89.9439655,27.6077586 C90.0445402,27.7083333 90.0948276,27.8793103 90.0948276,28.1206897 L90.0948276,28.512931 C90.0948276,28.7341954 90.0445402,28.8951149 89.9439655,28.9956897 C89.8836207,29.0560345 89.6925287,29.0862069 89.3706897,29.0862069 L85.5991379,29.0862069 L85.5991379,29.0862069 Z M106.206897,28.5732759 L110.612069,28.5732759 L111.456897,29.8103448 L112.633621,29.8103448 L109.012931,24.8017241 L107.836207,24.8017241 L104.306034,29.8103448 L105.392241,29.8103448 L106.206897,28.5732759 L106.206897,28.5732759 Z M106.659483,27.9698276 L108.409483,25.4051724 L110.189655,27.9698276 L106.659483,27.9698276 L106.659483,27.9698276 Z M127.719828,26.8534483 L127.719828,24.8017241 L126.603448,24.8017241 L126.603448,29.8103448 L127.719828,29.8103448 L127.719828,27.5474138 L132.849138,27.5474138 L132.849138,29.8103448 L133.905172,29.8103448 L133.905172,24.8017241 L132.849138,24.8017241 L132.849138,26.8534483 L127.719828,26.8534483 L127.719828,26.8534483 Z M149.202586,26.8534483 L149.081897,25.7672414 L149.443966,26.1293103 L154.75431,29.8103448 L155.387931,29.8103448 L155.387931,24.8017241 L154.422414,24.8017241 L154.452586,28.7844828 L153.758621,28.1206897 L148.900862,24.8017241 L148.176724,24.8017241 L148.176724,29.8103448 L149.202586,29.8103448 L149.202586,26.8534483 L149.202586,26.8534483 Z M176.900862,25.4655172 L176.900862,24.8017241 L170.625,24.8017241 L170.625,29.8103448 L176.961207,29.8103448 L176.961207,29.0862069 L171.681034,29.0862069 L171.681034,27.5474138 L174.909483,27.5474138 L174.909483,26.8534483 L171.681034,26.8534483 L171.681034,25.4655172 L176.900862,25.4655172 L176.900862,25.4655172 Z M197.237069,28.7844828 L196.482759,28.1206897 L191.625,24.8017241 L190.900862,24.8017241 L190.900862,29.8103448 L191.926724,29.8103448 L191.836207,25.7672414 L192.198276,26.1293103 L197.508621,29.8103448 L198.112069,29.8103448 L198.112069,24.8017241 L197.146552,24.8017241 L197.146552,27.5474138 C197.146552,28.170977 197.176724,28.5833333 197.237069,28.7844828 Z" id="Shape" fill="#AF8C55"></path>
                <path d="M33.6112531,11.5329126 L40.6658633,6.07263979 C41.5519496,5.35821158 41.9949927,4.45667122 41.9949927,3.36801871 C41.9949927,2.44946815 41.6712304,1.66699916 41.0237058,1.02061173 C40.3761812,0.374224301 39.6093758,0.0510305865 38.7232895,0.0510305865 L23.0804583,0.0510305865 L23.0804583,8.93035264 L27.0678466,8.87932205 L27.0678466,4.13347751 L36.4739935,4.13347751 L23.0804583,14.5437172 L23.0804583,19.6978064 L30.2884295,14.0844419 L37.4964008,19.6978064 L44.142048,19.6978064 L33.6112531,11.5329126 Z" id="Shape" fill="#FFFFFF"></path>
                <path d="M198.167703,19.6978064 L187.636908,11.5329126 L194.691518,6.07263979 C195.543524,5.39223197 195.969527,4.49069161 195.969527,3.36801871 C195.969527,2.44946815 195.662805,1.66699916 195.049361,1.02061173 C194.401836,0.374224301 193.635031,0.0510305865 192.748945,0.0510305865 L177.106113,0.0510305865 L177.106113,8.93035264 L181.093502,8.87932205 L181.093502,4.13347751 L190.499649,4.13347751 L177.106113,14.5437172 L177.106113,19.6978064 L184.314085,14.0844419 L191.522056,19.6978064 L198.167703,19.6978064 Z" id="Shape" fill="#FFFFFF"></path>
                <path d="M16.7926536,0.0510305865 C15.7361661,0.0510305865 14.8500798,0.510305865 14.1343947,1.42885642 C14.1684749,1.42885642 9.75508354,7.51850641 0.894220549,19.6978064 L5.90401617,19.6978064 L16.0258481,5.76645628 L16.0258481,15.5643289 L8.92011761,15.5643289 L14.2366354,19.6978064 L20.0132365,19.6978064 L20.0132365,3.4190493 C20.0132365,2.50049874 19.7065143,1.71802975 19.0930699,1.07164232 C18.4455453,0.391234497 17.6787399,0.0510305865 16.7926536,0.0510305865 Z" id="Shape" fill="#FFFFFF"></path>
                <path d="M50.2253713,19.6467758 L62.0341752,19.6467758 L62.0341752,15.5132983 L50.9410564,15.5132983 L50.9410564,0 L46.953668,0 L46.953668,16.2787571 C46.953668,17.1973077 47.2774303,17.9967868 47.9249549,18.6771947 C48.5724795,19.3235821 49.339285,19.6467758 50.2253713,19.6467758 Z" id="Shape" fill="#FFFFFF"></path>
                <path d="M83.0957649,1.07164232 C82.4482403,0.391234497 81.6814349,0.0510305865 80.7953486,0.0510305865 L65.0502767,0.0510305865 L65.0502767,4.18450809 L78.5460526,4.18450809 L71.2358406,9.8489032 L78.5460526,15.5132983 L69.037665,15.5132983 L69.037665,9.8489032 L65.0502767,9.8489032 L65.0502767,19.6467758 L80.7953486,19.6467758 C81.6814349,19.6467758 82.4482403,19.3235821 83.0957649,18.6771947 C83.7432896,17.9967868 84.0670519,17.1973077 84.0670519,16.2787571 C84.0670519,15.1560842 83.6240087,14.2545438 82.7379224,13.574136 L77.8814879,9.8489032 L82.7379224,6.12367038 C83.6240087,5.47728295 84.0670519,4.57574259 84.0670519,3.4190493 C84.0670519,2.50049874 83.7432896,1.71802975 83.0957649,1.07164232 Z" id="Shape" fill="#FFFFFF"></path>
                <path d="M106.099928,19.6978064 L106.099928,15.5643289 L91.0705416,15.5643289 L91.0705416,11.9411572 L106.048808,11.9411572 L106.048808,7.80767974 L91.0705416,7.80767974 L91.0705416,4.18450809 L106.099928,4.18450809 L106.099928,0.0510305865 L90.3037362,0.0510305865 C89.4176499,0.0510305865 88.6508444,0.391234497 88.0033198,1.07164232 C87.3898755,1.71802975 87.0831533,2.50049874 87.0831533,3.4190493 L87.0831533,16.3297877 C87.0831533,17.2483382 87.3898755,18.0478174 88.0033198,18.7282252 C88.6508444,19.3746127 89.4176499,19.6978064 90.3037362,19.6978064 L106.099928,19.6978064 Z" id="Shape" fill="#FFFFFF"></path>
                <path d="M151.085848,18.6771947 C151.733373,17.9967868 152.057135,17.1973077 152.057135,16.2787571 C152.057135,15.1901046 151.614092,14.2885642 150.728006,13.574136 L145.871571,9.8489032 L139.174804,9.8489032 L146.536136,15.5132983 L137.027748,15.5132983 L137.027748,4.13347751 L150.063441,4.13347751 L150.063441,0 L136.260943,0 C135.374857,0 134.608051,0.34020391 133.960527,1.02061173 C133.313002,1.66699916 132.98924,2.44946815 132.98924,3.36801871 L132.98924,16.2787571 C132.98924,17.1973077 133.313002,17.9967868 133.960527,18.6771947 C134.608051,19.3235821 135.374857,19.6467758 136.260943,19.6467758 L148.785432,19.6467758 C149.671518,19.6467758 150.438324,19.3235821 151.085848,18.6771947 Z" id="Shape" fill="#FFFFFF"></path>
                <path d="M174.090012,4.18450809 L174.090012,0.0510305865 L158.29382,0.0510305865 C157.407733,0.0510305865 156.640928,0.391234497 155.993403,1.07164232 C155.379959,1.71802975 155.073237,2.50049874 155.073237,3.4190493 L155.073237,16.3297877 C155.073237,17.2483382 155.379959,18.0478174 155.993403,18.7282252 C156.640928,19.3746127 157.407733,19.6978064 158.29382,19.6978064 L174.090012,19.6978064 L174.090012,15.5643289 L159.060625,15.5643289 L159.060625,11.9411572 L174.038891,11.9411572 L174.038891,7.80767974 L159.060625,7.80767974 L159.060625,4.18450809 L174.090012,4.18450809 Z" id="Shape" fill="#FFFFFF"></path>
                <path d="M126.701435,6.07263979 C127.553441,5.39223197 127.979444,4.49069161 127.979444,3.36801871 C127.979444,2.44946815 127.672722,1.66699916 127.059278,1.02061173 C126.411753,0.374224301 125.644947,0.0510305865 124.758861,0.0510305865 L109.06491,0.0510305865 L109.06491,8.93035264 L113.103418,8.87932205 L113.103418,4.13347751 L122.509565,4.13347751 L109.06491,14.5437172 L109.06491,19.6978064 L116.324001,14.0844419 L123.531972,19.6978064 L130.17762,19.6978064 L119.646825,11.5329126 L126.701435,6.07263979 Z" id="Shape" fill="#FFFFFF"></path>
                <path d="M0.844827586,33.9439655 L198.172414,33.9439655" id="Bergbahnen" stroke="#AF8C55"></path>
                <g id="Group-3" transform="translate(64.000000, 41.000000)">
                    <g id="Page-1">
                        <path d="M41.0227161,6.20799273 L37.4918309,5.53994727 C37.0741993,5.45526545 37.0552161,5.52112909 37.4538644,5.68108364 L39.5894804,6.54672 C39.9881288,6.71608364 40.1210115,7.13949273 39.8932125,7.51585636 L38.659301,9.49176545 C38.431502,9.86812909 38.4884517,9.90576545 38.7826922,9.58585636 L41.2505151,6.92308364 C41.5447556,6.61258364 41.4403477,6.29267455 41.0227161,6.20799273" id="Fill-1" fill="#FFFFFF"></path>
                        <path d="M42.5887396,8.77667455 L44.0504501,10.5926291 C44.3257073,10.9313564 44.3731654,10.89372 44.1738413,10.5079473 L42.4653484,7.28062909 C42.2660243,6.89485636 41.9338173,6.89485636 41.7250016,7.28062909 L40.0165087,10.5079473 C39.8076929,10.89372 39.8646427,10.9313564 40.1398999,10.5926291 L41.6016104,8.77667455 C41.8768676,8.44735636 42.3134824,8.44735636 42.5887396,8.77667455" id="Fill-3" fill="#FFFFFF"></path>
                        <path d="M37.5110989,4.05331091 L40.7477437,5.63403818 C41.1369004,5.82222 41.4026659,5.62462909 41.3457161,5.19181091 L40.8806264,1.55049273 C40.8236767,1.11767455 40.7572353,1.11767455 40.7287604,1.55049273 L40.586386,3.90276545 C40.5579111,4.33558364 40.2067209,4.60844727 39.7890894,4.49553818 L37.5680487,3.91217455 C37.1504171,3.79926545 37.1314339,3.86512909 37.5110989,4.05331091" id="Fill-5" fill="#FFFFFF"></path>
                        <path d="M44.4588748,3.413775 L46.6799155,1.98359318 C47.0405973,1.757775 47.0121224,1.70132045 46.6229657,1.88009318 L45.2751547,2.46345682 C44.885998,2.63282045 44.5917576,2.41641136 44.6297241,1.98359318 L44.7626069,0.496956818 C44.8005734,0.0547295455 44.7436236,0.0453204545 44.6392157,0.468729545 L43.9937851,3.06563864 C43.8893772,3.48904773 44.098193,3.64900227 44.4588748,3.413775" id="Fill-7" fill="#FFFFFF"></path>
                        <g id="Group-11" transform="translate(37.017344, 0.085905)">
                            <mask id="mask-2" fill="white">
                                <use xlink:href="#path-1"></use>
                            </mask>
                            <g id="Clip-10"></g>
                            <path d="M0.50305622,1.89768818 L2.71460526,3.32787 C3.07528708,3.56309727 3.28410287,3.40314273 3.17969498,2.98914273 L2.53426435,0.382824545 C2.42985646,-0.0405845455 2.38239833,-0.0311754545 2.42036483,0.401642727 L2.54375598,1.89768818 C2.58172249,2.33050636 2.28748206,2.54691545 1.89832536,2.37755182 L0.560005981,1.78477909 C0.170849282,1.61541545 0.142374402,1.67187 0.50305622,1.89768818" id="Fill-9" fill="#FFFFFF" mask="url(#mask-2)"></path>
                        </g>
                        <path d="M43.1681085,6.20799273 C42.7504769,6.28326545 42.646069,6.61258364 42.9403094,6.92308364 L45.4081324,9.59526545 C45.7023728,9.90576545 45.7593226,9.86812909 45.5315236,9.50117455 L44.2976121,7.50644727 C44.069813,7.13949273 44.2026958,6.70667455 44.6013441,6.54672 L46.7369602,5.69049273 C47.1356085,5.53053818 47.1166252,5.46467455 46.6989937,5.53994727 L43.1681085,6.20799273 Z" id="Fill-12" fill="#FFFFFF"></path>
                        <path d="M42.5317898,5.63422636 L45.7684346,4.05349909 C46.1575913,3.86531727 46.138608,3.79945364 45.7209764,3.91236273 L43.4904441,4.49572636 C43.0823042,4.59922636 42.7216224,4.33577182 42.6931475,3.90295364 L42.5602647,1.55068091 C42.5317898,1.11786273 42.4653484,1.11786273 42.4083987,1.55068091 L41.9338173,5.19199909 C41.8863592,5.62481727 42.1521248,5.82240818 42.5317898,5.63422636" id="Fill-14" fill="#FFFFFF"></path>
                        <path d="M42.3802086,9.96250227 C42.2283425,9.55791136 41.9720686,9.55791136 41.8107109,9.96250227 L40.8330734,12.4465023 C40.6812074,12.8510932 40.7286655,12.8793205 40.9469729,12.5029568 L41.6968114,11.2233205 C41.9151188,10.8563659 42.2758007,10.8563659 42.4941081,11.2233205 L43.2439466,12.5029568 C43.462254,12.8793205 43.5097121,12.8510932 43.3578461,12.4465023 L42.3802086,9.96250227 Z" id="Fill-16" fill="#FFFFFF"></path>
                        <path d="M38.5547982,7.12086273 L35.9446008,6.93268091 C35.5174776,6.90445364 35.5174776,6.96090818 35.9256176,7.06440818 L37.3493616,7.40313545 C37.7669932,7.49722636 37.8714011,7.84536273 37.5961439,8.17468091 L36.6374896,9.30377182 C36.3622324,9.63309 36.4001989,9.67072636 36.7229142,9.38845364 L38.7351391,7.67599909 C39.0673461,7.39372636 38.9819214,7.14909 38.5547982,7.12086273" id="Fill-18" fill="#FFFFFF"></path>
                        <path d="M48.2457492,6.94218409 L45.6355518,7.11154773 C45.2084286,7.139775 45.1230039,7.39382045 45.4552109,7.67609318 L47.4674358,9.38854773 C47.7901511,9.67082045 47.8281176,9.63318409 47.5528604,9.30386591 L46.5942061,8.174775 C46.3189489,7.84545682 46.4233568,7.49732045 46.8409884,7.39382045 L48.2647324,7.06450227 C48.6728724,6.97041136 48.6728724,6.91395682 48.2457492,6.94218409" id="Fill-20" fill="#FFFFFF"></path>
                        <polygon id="Fill-22" fill="#FFFFFF" points="61.0214788 15.3349991 62.7014968 15.3349991 62.7014968 14.4787718 61.0214788 14.4787718 61.0214788 13.6413627 62.7489549 13.6413627 62.7489549 12.7851355 60.0343496 12.7851355 60.0343496 17.1227264 62.7869214 17.1227264 62.7869214 16.2664991 61.0214788 16.2664991"></polygon>
                        <g id="Group-26" transform="translate(67.390550, 12.474541)">
                            <mask id="mask-4" fill="white">
                                <use xlink:href="#path-3"></use>
                            </mask>
                            <g id="Clip-25"></g>
                            <path d="M2.13580586,2.25818182 L2.13580586,3.11440909 L2.97106902,3.11440909 L2.97106902,3.8295 C2.80971136,3.85772727 2.64835371,3.86713636 2.47750443,3.86713636 C1.62325801,3.86713636 1.12020179,3.37786364 1.12020179,2.53104545 C1.12020179,1.64659091 1.70868266,1.10086364 2.64835371,1.10086364 C3.12293505,1.10086364 3.49310849,1.19495455 3.91074007,1.43959091 L3.91074007,0.498681818 C3.43615873,0.301090909 3.02801878,0.225818182 2.55343744,0.225818182 C1.06325203,0.225818182 0.0761228469,1.14790909 0.0761228469,2.54986364 C0.0761228469,3.25554545 0.33239677,3.83890909 0.80697811,4.22468182 C1.23410132,4.554 1.77512404,4.70454545 2.50597931,4.70454545 C2.98056065,4.70454545 3.40768385,4.6575 3.9202317,4.52577273 L3.9202317,2.25818182 L2.13580586,2.25818182 Z" id="Fill-24" fill="#FFFFFF" mask="url(#mask-4)"></path>
                        </g>
                        <path d="M47.7145977,16.9251355 C47.4203573,16.0406809 47.249508,15.5419991 47.0027257,14.8833627 C46.7559434,14.2059082 46.6040774,13.8107264 46.2433956,12.9262718 L46.1769542,12.7757264 L45.2088083,12.7757264 L45.1423669,12.9168627 L45.0569422,13.1050445 L44.9810092,13.3026355 C44.8196516,13.6601809 44.7721934,13.7636809 44.7342269,13.8671809 C44.6013441,14.1682718 44.4684614,14.4881809 44.326087,14.8457264 C43.99388,15.6737264 43.7186228,16.3794082 43.5287903,16.9345445 L43.4623489,17.1227264 L44.4874446,17.1227264 L44.5159195,17.0098173 L44.8291432,16.0783173 L44.8671097,15.9748173 L46.3667867,15.9748173 L46.3952616,16.0594991 L46.6989937,17.0192264 L46.7274685,17.1227264 L47.7810391,17.1227264 L47.7145977,16.9251355 Z M45.1613501,15.1562264 L45.2182999,14.9868627 L45.4081324,14.4505445 C45.5599984,14.0553627 45.5884733,13.9518627 45.6644063,13.6413627 C45.7213561,14.0365445 45.7403394,14.0741809 46.053563,15.01509 L46.1105128,15.1562264 L45.1613501,15.1562264 Z" id="Fill-27" fill="#FFFFFF"></path>
                        <polygon id="Fill-29" fill="#FFFFFF" points="53.5421718 12.7755382 52.545551 12.7755382 52.545551 17.1225382 55.3076144 17.1225382 55.3076144 16.2098564 53.5421718 16.2098564"></polygon>
                        <path d="M58.4019797,14.8457264 C58.8860526,14.6951809 59.1328349,14.3752718 59.1328349,13.9048173 C59.1328349,13.5284536 58.9714773,13.2085445 58.6867285,13.0203627 C58.3829964,12.8227718 58.0223146,12.7474991 57.3958672,12.7474991 C56.9972189,12.7474991 56.5321292,12.7663173 56.0765311,12.7945445 L56.0765311,17.1133173 C56.4561962,17.1321355 56.8643361,17.1415445 57.2250179,17.1415445 C57.8894318,17.1415445 58.2880801,17.08509 58.5728289,16.9533627 C59.028427,16.7463627 59.2562261,16.3982264 59.2562261,15.9183627 C59.2562261,15.3726355 58.9714773,15.0244991 58.4019797,14.8457264 L58.4019797,14.8457264 Z M57.0351854,13.5096355 L57.4338337,13.5002264 C57.9179067,13.5002264 58.1457057,13.66959 58.1457057,14.0271355 C58.1457057,14.2153173 58.0602811,14.3658627 57.9273983,14.4505445 C57.7850239,14.5164082 57.6331579,14.5352264 57.3199342,14.5352264 L57.1585766,14.5352264 L57.0351854,14.5352264 L57.0351854,13.5096355 Z M57.4718002,16.3888173 L57.1585766,16.3699991 L57.0351854,16.3699991 L57.0351854,15.2973627 L57.1775598,15.2879536 L57.4433254,15.2785445 C58.0033313,15.2785445 58.2690969,15.4667264 58.2690969,15.8524991 C58.2690969,16.2100445 58.012823,16.3888173 57.4718002,16.3888173 L57.4718002,16.3888173 Z" id="Fill-31" fill="#FFFFFF"></path>
                        <path d="M50.7326503,15.3349991 L50.7421419,15.3349991 C51.2641814,15.0903627 51.5109637,14.70459 51.5109637,14.1400445 C51.5109637,13.6884082 51.3211312,13.2932264 50.9889242,13.0674082 C50.6851922,12.84159 50.2865438,12.7569082 49.6506048,12.7569082 C49.3373812,12.7569082 48.8817831,12.7663173 48.502118,12.7945445 L48.4072017,12.8039536 L48.4072017,17.1227264 L49.3563644,17.1227264 L49.3563644,15.4949536 L49.4417891,15.4949536 L49.62213,15.5043627 L49.7834876,15.5043627 L49.7929792,15.5043627 L50.7516336,17.1321355 L51.8716455,17.1321355 L50.7326503,15.3349991 Z M49.62213,14.7422264 C49.5367053,14.7422264 49.4702639,14.7422264 49.3563644,14.7234082 L49.3563644,13.5566809 L49.4607723,13.5472718 L49.7455211,13.5566809 C50.2675606,13.5566809 50.5238345,13.7542718 50.5238345,14.1588627 C50.5238345,14.5822718 50.2770522,14.7422264 49.62213,14.7422264 L49.62213,14.7422264 Z" id="Fill-33" fill="#FFFFFF"></path>
                        <path d="M66.0425494,15.3349991 L66.052041,15.3349991 C66.5645889,15.0903627 66.8208628,14.70459 66.8208628,14.1400445 C66.8208628,13.6884082 66.6310303,13.2932264 66.2988233,13.0674082 C65.9855996,12.84159 65.5964429,12.7569082 64.9605039,12.7569082 C64.6377886,12.7569082 64.1821906,12.7663173 63.8025255,12.7945445 L63.7076092,12.8039536 L63.7076092,17.1227264 L64.6662635,17.1227264 L64.6662635,15.4949536 L64.7421965,15.4949536 L64.9320291,15.5043627 L65.0838951,15.5043627 L65.0933867,15.5043627 L66.052041,17.1321355 L67.172053,17.1321355 L66.0425494,15.3349991 Z M64.9320291,14.7422264 C64.8466044,14.7422264 64.7706714,14.7422264 64.6662635,14.7234082 L64.6662635,13.5566809 L64.7706714,13.5472718 L65.0459286,13.5566809 C65.5679681,13.5566809 65.8337336,13.7542718 65.8337336,14.1588627 C65.8337336,14.5822718 65.5774597,14.7422264 64.9320291,14.7422264 L64.9320291,14.7422264 Z" id="Fill-35" fill="#FFFFFF"></path>
                        <g id="Group-39" transform="translate(0.000000, 3.065450)">
                            <mask id="mask-6" fill="white">
                                <use xlink:href="#path-5"></use>
                            </mask>
                            <g id="Clip-38"></g>
                            <path d="M18.3850913,9.81349364 C18.0813592,9.75703909 17.9105099,9.37126636 17.8345769,9.02313 C17.8155937,8.86317545 17.8155937,8.70322091 17.8250853,8.53385727 C17.8535602,8.18572091 17.9105099,7.80935727 18.0149178,7.42358455 C18.1098341,7.01899364 18.1762755,6.64263 18.2237336,6.29449364 C18.2522085,6.04985727 18.2332252,5.87108455 18.1667839,5.77699364 C18.1098341,5.66408455 18.0244094,5.64526636 17.9105099,5.72053909 C17.7396606,5.81463 17.5877946,5.97458455 17.4454202,6.20981182 C17.3030458,6.43563 17.1606714,6.70849364 17.0277886,7.03781182 C16.8949059,7.35772091 16.7715147,7.70585727 16.6481236,8.10103909 L16.2874417,9.28658455 C16.2399836,9.43713 16.1830339,9.55944818 16.1165925,9.65353909 C16.0501511,9.72881182 15.9552348,9.78526636 15.8318437,9.81349364 C15.7084525,9.84172091 15.5376032,9.84172091 15.3287874,9.81349364 C15.1199717,9.79467545 14.8542061,9.75703909 14.5219992,9.70999364 C14.6074238,9.40890273 14.6928484,9.08899364 14.7687815,8.75026636 C14.8447145,8.41153909 14.9206475,8.07281182 14.9775972,7.73408455 C15.0440386,7.39535727 15.11048,7.07544818 15.1579382,6.78376636 L15.2718377,6.00281182 C15.3003126,5.76758455 15.3098042,5.54176636 15.2908209,5.30653909 C15.2718377,5.07131182 15.2148879,4.87372091 15.1009884,4.69494818 C15.4047205,4.51617545 15.670486,4.38444818 15.9172683,4.29976636 C16.1640506,4.21508455 16.3728664,4.16803909 16.5247324,4.16803909 C16.866431,4.16803909 17.0277886,4.41267545 17.0088054,4.89253909 C16.9898221,5.14658455 16.9613472,5.39122091 16.9233807,5.62644818 C16.8854142,5.86167545 16.8474477,6.06867545 16.8094812,6.24744818 C16.9518556,6.04985727 17.1132133,5.83344818 17.3125374,5.59822091 C17.5118616,5.35358455 17.7206774,5.12776636 17.9389848,4.92076636 C18.1572922,4.70435727 18.3850913,4.53499364 18.6033987,4.38444818 C18.8311977,4.24331182 19.0400135,4.16803909 19.2298461,4.16803909 C19.4386618,4.16803909 19.6095111,4.24331182 19.7423939,4.38444818 C19.8847683,4.53499364 19.9512097,4.79844818 19.9512097,5.17481182 C19.9417181,5.40063 19.9227348,5.64526636 19.8752767,5.90872091 C19.8373102,6.17217545 19.3627288,8.50563 19.3247623,9.16426636 C19.3152707,9.35244818 19.3057791,9.64413 19.3057791,9.64413 C19.1349298,9.71940273 18.9356056,9.78526636 18.7267898,9.82290273 C18.6413652,9.83231182 18.5084824,9.84172091 18.3850913,9.81349364 M29.072663,5.99340273 C29.0916463,6.53913 29.0252049,7.04722091 28.8638472,7.51767545 C28.7024896,7.98813 28.4651989,8.40213 28.1709585,8.75967545 C27.8862097,9.09840273 27.5350195,9.38067545 27.1363712,9.58767545 C26.7282312,9.78526636 26.3105996,9.87935727 25.8550016,9.87935727 C25.3139788,9.87935727 24.877364,9.72881182 24.5451571,9.40890273 C24.2319334,9.08899364 24.0610841,8.59972091 24.0326092,7.92226636 C24.013626,7.37653909 24.089559,6.87785727 24.2604083,6.41681182 C24.4312575,5.95576636 24.6685482,5.56058455 24.9722803,5.23126636 C25.2760123,4.89253909 25.6272025,4.63849364 26.0353425,4.45972091 C26.4434824,4.26213 26.8706056,4.16803909 27.3262037,4.16803909 C27.8387516,4.16803909 28.2563831,4.31858455 28.5601152,4.60085727 C28.8733389,4.89253909 29.0441882,5.35358455 29.072663,5.99340273 M27.42112,5.69231182 C27.4116283,5.51353909 27.3736618,5.33476636 27.3167121,5.17481182 C27.2597623,5.01485727 27.1458628,4.93017545 26.9845051,4.93017545 C26.8706056,4.93017545 26.7472145,4.99603909 26.633315,5.13717545 C26.5194154,5.25949364 26.4244992,5.42885727 26.3200913,5.63585727 C26.225175,5.84285727 26.1397504,6.08749364 26.0543257,6.35094818 C25.9783927,6.60499364 25.9024597,6.85903909 25.8455099,7.11308455 C25.7885602,7.35772091 25.741102,7.60235727 25.7126272,7.82817545 C25.6841523,8.05399364 25.6746606,8.24217545 25.6841523,8.37390273 C25.6936439,8.54326636 25.7221188,8.71263 25.7790685,8.88199364 C25.8455099,9.03253909 25.9594094,9.10781182 26.1207671,9.10781182 C26.3105996,9.10781182 26.4814489,8.97608455 26.6428066,8.70322091 C26.8041642,8.43035727 26.9465386,8.11044818 27.0604382,7.73408455 C27.1838293,7.35772091 27.2692539,6.98135727 27.3356953,6.60499364 C27.4021367,6.22863 27.4306116,5.91813 27.42112,5.69231182 M12.1301092,2.56849364 L13.050797,1.48644818 C13.1931714,1.32649364 13.3165626,1.16653909 13.4209705,0.997175455 C13.5253783,0.827811818 13.610803,0.63963 13.6677528,0.442039091 C14.0569094,0.347948182 14.3606415,0.291493636 14.5979322,0.263266364 C14.8352228,0.22563 15.0060721,0.235039091 15.11048,0.291493636 C15.2338712,0.347948182 15.2908209,0.451448182 15.3003126,0.601993636 C15.3003126,0.761948182 15.2623461,0.978357273 15.1769214,1.26063 C15.0250554,1.80635727 14.8636977,2.39913 14.7118317,3.02953909 L14.246742,4.89253909 C14.1043676,5.51353909 13.9714848,6.12513 13.8575853,6.72731182 C13.7436858,7.32949364 13.6487695,7.87522091 13.5633449,8.38331182 C13.5158867,8.66558455 13.5063951,8.91022091 13.53487,9.12663 C13.5633449,9.33363 13.6487695,9.50299364 13.7911439,9.62531182 C13.53487,9.77585727 13.2785961,9.90758455 13.0128305,10.0110845 C12.7565566,10.1145845 12.5192659,10.1804482 12.3104501,10.1992664 C11.9592599,10.2180845 11.7314609,10.1145845 11.6460362,9.87935727 C11.5701032,9.65353909 11.5795949,9.26776636 11.6840028,8.73144818 L11.7599358,8.27981182 L11.8738353,7.77172091 L12.0162097,7.13190273 C11.475187,7.14131182 11.0480638,7.11308455 10.8867061,7.11308455 L10.3836499,7.06603909 C10.203309,7.04722091 10.0229681,7.03781182 9.83313553,7.02840273 L9.27312955,6.97194818 L9.03583888,7.21658455 L8.68464868,7.57413 L8.30498361,7.95049364 L8.02972644,8.22335727 C7.36531256,8.88199364 6.80530658,9.38067545 6.34970849,9.70999364 C5.89411041,10.0299027 5.48597045,10.1992664 5.12528864,10.1992664 C4.87850634,10.1992664 4.71714868,10.1145845 4.52731615,9.95463 C4.33748361,9.79467545 4.23307572,9.50299364 4.22358409,9.05135727 C4.21409246,8.88199364 4.27104222,8.81613 4.41341663,8.86317545 C4.61274079,8.94785727 4.85003146,8.94785727 5.12528864,8.88199364 C5.40054581,8.80672091 5.69478624,8.67499364 6.00800993,8.49622091 C6.32123361,8.31744818 6.65344055,8.09163 6.99513911,7.81876636 C7.3083628,7.56472091 7.56463672,7.32949364 7.92531854,7.00958455 C9.70025275,5.41944818 11.7979023,2.93544818 12.1301092,2.56849364 M13.1836798,2.67199364 C12.111126,3.95163 11.0480638,5.09953909 10.3267001,5.84285727 L11.3517958,5.92753909 L12.2819752,5.96517545 C12.338925,5.74876636 12.5097743,5.02426636 12.6711319,4.42208455 C12.8514728,3.73522091 13.1172384,2.87899364 13.1836798,2.67199364 M32.9167719,9.81349364 C32.6130398,9.75703909 32.4421906,9.37126636 32.3757492,9.02313 C32.3472743,8.86317545 32.3472743,8.70322091 32.3662575,8.53385727 C32.3852408,8.18572091 32.4421906,7.80935727 32.5465984,7.42358455 C32.6415147,7.01899364 32.7174477,6.64263 32.7649059,6.29449364 C32.7838891,6.04985727 32.7743975,5.87108455 32.7079561,5.77699364 C32.6510063,5.66408455 32.5560901,5.64526636 32.4421906,5.72053909 C32.2808329,5.81463 32.1194752,5.97458455 31.9771008,6.20981182 C31.8347264,6.43563 31.7018437,6.70849364 31.5594693,7.03781182 C31.4265865,7.35772091 31.3031953,7.70585727 31.1798042,8.10103909 L30.8191224,9.28658455 C30.7716642,9.43713 30.7147145,9.55944818 30.6482731,9.65353909 C30.5913233,9.72881182 30.4869154,9.78526636 30.3635243,9.81349364 C30.2401331,9.84172091 30.0787755,9.84172091 29.8604681,9.81349364 C29.6516523,9.79467545 29.3858867,9.75703909 29.0536798,9.70999364 C29.1485961,9.40890273 29.2245291,9.08899364 29.3004621,8.75026636 C29.3763951,8.41153909 29.4523281,8.07281182 29.5092779,7.73408455 C29.5852109,7.39535727 29.6421606,7.07544818 29.6896188,6.78376636 L29.8035183,6.00281182 C29.8319932,5.76758455 29.8414848,5.54176636 29.8225016,5.30653909 C29.8035183,5.07131182 29.7465685,4.87372091 29.6421606,4.69494818 C29.9364011,4.51617545 30.2116583,4.38444818 30.4584406,4.29976636 C30.7052228,4.21508455 30.904547,4.16803909 31.056413,4.16803909 C31.4076032,4.16803909 31.5689609,4.41267545 31.540486,4.89253909 C31.5309944,5.14658455 31.5025195,5.39122091 31.4550614,5.62644818 C31.4170949,5.86167545 31.3791283,6.06867545 31.3411618,6.24744818 C31.4835362,6.04985727 31.6448939,5.83344818 31.8442181,5.59822091 C32.0435422,5.35358455 32.252358,5.12776636 32.4801571,4.92076636 C32.6984645,4.70435727 32.9167719,4.53499364 33.1350793,4.38444818 C33.37237,4.24331182 33.5811858,4.16803909 33.7710183,4.16803909 C33.9703425,4.16803909 34.1411917,4.24331182 34.2740745,4.38444818 C34.4164489,4.53499364 34.4828903,4.79844818 34.4828903,5.17481182 C34.4733987,5.40063 34.4544154,5.64526636 34.4069573,5.90872091 C34.3784824,6.17217545 33.9039011,8.50563 33.8564429,9.16426636 L33.8374597,9.64413 C33.6666104,9.71940273 33.4767779,9.78526636 33.2584705,9.82290273 C33.1730458,9.83231182 33.040163,9.84172091 32.9167719,9.81349364 M21.1946128,9.70999364 C21.0237635,9.57826636 20.9003724,9.39949364 20.8244394,9.19249364 C20.7485063,8.98549364 20.7010482,8.75026636 20.7010482,8.48681182 C20.7010482,8.21394818 20.7105398,7.94108455 20.7485063,7.67763 L20.9288472,6.59558455 L21.1851212,5.40063 L20.8054561,5.34417545 C20.6725733,5.32535727 20.5871487,5.29713 20.5586738,5.25949364 C20.5301989,5.22185727 20.5396906,5.14658455 20.5681654,5.02426636 L20.7010482,4.56322091 C20.7295231,4.43149364 20.7769812,4.36563 20.8149477,4.34681182 C20.8624059,4.31858455 20.9383389,4.29976636 21.0522384,4.29976636 L21.4319035,4.29976636 C21.4603783,4.17744818 21.4888532,4.05513 21.5363114,3.93281182 C21.6027528,3.67876636 21.6881774,3.47176636 21.7830937,3.32122091 C21.8780099,3.16126636 22.0014011,3.02953909 22.1437755,2.93544818 C22.2861499,2.85076636 22.4569992,2.78490273 22.665815,2.74726636 C22.8651391,2.70963 23.2068377,2.69081182 23.4915865,2.75667545 C23.4061618,2.94485727 23.3207372,3.19890273 23.2542958,3.40590273 C23.1878544,3.59408455 23.1024298,3.89517545 22.9980219,4.29976636 L24.3078664,4.29976636 C24.393291,4.29976636 24.4407492,4.32799364 24.4407492,4.37503909 C24.4502408,4.42208455 24.4312575,4.51617545 24.3743078,4.67613 C24.3363413,4.79844818 24.2983748,4.90194818 24.2604083,4.97722091 C24.2224417,5.04308455 24.1844752,5.09953909 24.1465087,5.13717545 C24.1180339,5.17481182 24.089559,5.19363 24.0610841,5.20303909 L23.9471846,5.23126636 L22.8081894,5.34417545 L22.6563233,5.97458455 L22.5234406,6.61440273 L22.4000494,7.19776636 L22.3241164,7.65881182 C22.257675,8.12926636 22.2671666,8.43976636 22.3620829,8.60913 C22.409541,8.67499364 22.5044573,8.75026636 22.6753066,8.75026636 C22.7986977,8.74085727 22.8841224,8.71263 22.9600554,8.67499364 C23.1403963,8.57149364 23.2542958,8.35508455 23.3871786,8.37390273 C23.5105697,8.39272091 23.5390446,8.51503909 23.4441283,8.75967545 C23.3397205,9.00431182 23.1024298,9.39949364 22.8271726,9.60649364 C22.5424238,9.80408455 22.3051331,9.88876636 21.9634346,9.89817545 C21.5742779,9.91699364 21.2990207,9.78526636 21.1946128,9.70999364 M8.50430778,5.25949364 C8.5137994,5.40063 8.48532452,5.52294818 8.41888313,5.62644818 C8.36193337,5.73935727 8.28600036,5.82403909 8.19108409,5.89931182 C8.09616782,5.96517545 7.99175993,6.02163 7.87786041,6.05926636 C7.76396089,6.09690273 7.65955299,6.10631182 7.5551451,6.10631182 C7.48870371,6.10631182 7.41277069,6.09690273 7.33683768,6.07808455 C7.26090467,6.04985727 7.19446328,6.01222091 7.13751352,5.96517545 C7.07107213,5.91813 7.01412237,5.86167545 6.97615586,5.78640273 C6.92869773,5.71113 6.90971447,5.62644818 6.90971447,5.53235727 C6.90022285,5.39122091 6.92869773,5.26890273 6.98564749,5.16540273 C7.04259725,5.06190273 7.11853026,4.96781182 7.21344653,4.90194818 C7.3083628,4.82667545 7.41277069,4.77022091 7.52667022,4.74199364 C7.64056974,4.69494818 7.75446926,4.67613 7.84938553,4.67613 C7.92531854,4.67613 8.00125156,4.69494818 8.06769294,4.72317545 C8.14362596,4.74199364 8.21006734,4.77022091 8.27650873,4.81726636 C8.34295012,4.86431182 8.39040825,4.93017545 8.43786639,4.99603909 C8.47583289,5.07131182 8.50430778,5.15599364 8.50430778,5.25949364 M2.62899079,1.28885727 C2.79984007,1.28885727 2.96119773,1.29826636 3.11306376,1.32649364 C3.26492978,1.35472091 3.40730419,1.39235727 3.52120371,1.44881182 C3.64459486,1.50526636 3.73951112,1.57113 3.80595251,1.65581182 C3.88188553,1.74049364 3.91985203,1.84399364 3.91985203,1.96631182 C3.91985203,2.05099364 3.88188553,2.16390273 3.82493577,2.30503909 C3.767986,2.44617545 3.70154462,2.55908455 3.61611998,2.63435727 C3.57815347,2.67199364 3.54967859,2.68140273 3.52120371,2.68140273 C3.50222045,2.66258455 3.49272883,2.64376636 3.47374557,2.60613 C3.40730419,2.46499364 3.28391304,2.33326636 3.10357213,2.22976636 C2.91373959,2.11685727 2.72390706,2.05099364 2.51509127,2.03217545 C2.36322524,2.02276636 2.28729222,2.02276636 2.1354262,2.04158455 C1.83169414,2.08863 1.67982811,2.23917545 1.67982811,2.46499364 C1.67982811,2.55908455 1.70830299,2.64376636 1.75576112,2.70963 C1.82220251,2.76608455 1.90762715,2.82253909 2.00254342,2.87899364 C2.00254342,2.87899364 2.19237596,2.96367545 2.35373361,3.02953909 L2.81882333,3.21772091 C2.98018098,3.28358455 3.13204701,3.36826636 3.26492978,3.47176636 C3.39781256,3.56585727 3.51171208,3.69758455 3.59713672,3.84813 C3.68256136,3.99867545 3.7300195,4.18685727 3.7300195,4.41267545 C3.7300195,4.66672091 3.67306974,4.89253909 3.56866184,5.09013 C3.47374557,5.26890273 3.3408628,5.43826636 3.17001352,5.57940273 C2.99916423,5.71113 2.8093317,5.81463 2.59102428,5.89931182 C2.37271687,5.97458455 2.1354262,6.03103909 1.89813553,6.04985727 C1.6038951,6.06867545 1.4994872,6.06867545 1.32863792,6.05926636 C0.93948122,6.04044818 0.616765909,5.95576636 0.369983612,5.81463 C0.123201316,5.67349364 -0.000189832536,5.45708455 -0.000189832536,5.17481182 C-0.000189832536,5.04308455 0.0282850478,4.91135727 0.104218062,4.78903909 C0.17065945,4.65731182 0.256084091,4.54440273 0.360491986,4.46913 C0.417441746,4.41267545 0.455408254,4.43149364 0.474391507,4.51617545 C0.493374761,4.60085727 0.540832895,4.67613 0.607274282,4.77022091 C0.67371567,4.85490273 0.759140311,4.93017545 0.863548206,5.00544818 C0.9679561,5.08072091 1.09134725,5.14658455 1.22423002,5.19363 C1.3571128,5.25008455 1.46152069,5.29713 1.63236998,5.31594818 C1.77474438,5.32535727 1.86966065,5.33476636 2.01203505,5.29713 C2.1733927,5.25008455 2.31576711,5.19363 2.39170012,5.09953909 C2.47712476,4.99603909 2.52458289,4.88313 2.52458289,4.77022091 C2.52458289,4.65731182 2.48661639,4.56322091 2.41068337,4.48794818 C2.19237596,4.26213 1.61338672,4.04572091 1.38558768,3.93281182 C1.23372165,3.86694818 1.10083888,3.79167545 0.977447727,3.69758455 C0.854056579,3.59408455 0.759140311,3.48117545 0.67371567,3.34003909 C0.597782656,3.19890273 0.559816148,3.02013 0.559816148,2.81313 C0.559816148,2.61553909 0.597782656,2.41794818 0.683207297,2.24858455 C0.768631938,2.06981182 0.892023086,1.90985727 1.04388911,1.78753909 C1.19575514,1.65581182 1.37609605,1.55231182 1.57542022,1.46763 C1.784236,1.38294818 2.00254342,1.32649364 2.23983409,1.29826636 C2.36322524,1.28885727 2.46763313,1.28885727 2.62899079,1.28885727 M4.75511519,5.89931182 C4.61274079,5.78640273 4.50833289,5.64526636 4.44189151,5.47590273 C4.38494175,5.30653909 4.34697524,5.10894818 4.34697524,4.89253909 C4.34697524,4.67613 4.35646687,4.45031182 4.38494175,4.24331182 L4.53680778,3.35885727 L4.73613194,2.38031182 L4.43239988,2.33326636 C4.32799199,2.32385727 4.2615506,2.29563 4.23307572,2.26740273 C4.21409246,2.23917545 4.21409246,2.17331182 4.24256734,2.07922091 L4.34697524,1.70285727 C4.37545012,1.59935727 4.403925,1.54290273 4.44189151,1.52408455 C4.47985801,1.50526636 4.5462994,1.49585727 4.64121567,1.49585727 L4.94494773,1.49585727 C4.96393098,1.39235727 4.99240586,1.28885727 5.03037237,1.19476636 C5.08732213,0.987766364 5.15376352,0.818402727 5.22969653,0.686675455 C5.31512117,0.554948182 5.41003744,0.451448182 5.52393696,0.376175455 C5.63783648,0.310311818 5.78021089,0.253857273 5.94156854,0.22563 C6.11241782,0.197402727 6.387675,0.178584545 6.61547404,0.22563 C6.54903266,0.385584545 6.48259127,0.592584545 6.42564151,0.761948182 C6.36869175,0.912493636 6.30225036,1.15713 6.22631734,1.49585727 L7.28937955,1.49585727 C7.35582093,1.49585727 7.39378744,1.51467545 7.39378744,1.54290273 C7.40327907,1.58053909 7.38429581,1.66522091 7.33683768,1.79694818 C7.3083628,1.90044818 7.27039629,1.97572091 7.24192141,2.03217545 C7.21344653,2.09803909 7.18497165,2.14508455 7.15649677,2.17331182 C7.13751352,2.20153909 7.10903864,2.22035727 7.08056376,2.22976636 L6.99513911,2.24858455 L6.06495969,2.33326636 L5.94156854,2.85076636 L5.83716065,3.36826636 L5.73275275,3.84813 L5.67580299,4.22449364 C5.6093616,4.61026636 5.62834486,4.86431182 5.70427787,4.99603909 C5.73275275,5.05249364 5.81817739,5.10894818 5.96055179,5.11835727 C6.05546806,5.10894818 6.13140108,5.08072091 6.18835084,5.05249364 C6.34021687,4.96781182 6.42564151,4.78903909 6.5300494,4.80785727 C6.64394892,4.82667545 6.66293218,4.92076636 6.57750754,5.11835727 C6.50157452,5.31594818 6.30225036,5.64526636 6.07445132,5.80522091 C5.84665227,5.97458455 5.65681974,6.04044818 5.37207093,6.04985727 C5.05884725,6.05926636 4.84053983,5.95576636 4.75511519,5.89931182" id="Fill-37" fill="#FFFFFF" mask="url(#mask-6)"></path>
                        </g>
                    </g>
                </g>
            </g>
        </g>
    </g>
</svg>