<?xml version="1.0" encoding="UTF-8"?>
<svg width="76px" height="53px" viewBox="0 0 76 53" version="1.1" xmlns="http://www.w3.org/2000/svg" xmlns:xlink="http://www.w3.org/1999/xlink">
    <!-- Generator: Sketch 52.5 (67469) - http://www.bohemiancoding.com/sketch -->
    <title>maisengasse</title>
    <desc>Created with Sketch.</desc>
    <g id="Page-1" stroke="none" stroke-width="1" fill="none" fill-rule="evenodd">
        <g id="maisengasse" fill="#44393C">
            <path d="M3.7732637,12.5982832 L8.3911927,12.5982832 C9.717213,12.5791656 10.3957308,11.8966656 10.4272231,10.5498273 C10.3957308,9.642695 9.7267561,9.171445 8.419345,9.1332097 L3.7732637,9.1332097 L3.7732637,12.5982832 Z M3.7732637,6.3296067 L7.7317612,6.3296067 C8.8688272,6.310967 9.4528678,5.7221435 9.4848374,4.564092 C9.4528678,3.8720332 8.8783703,3.5068862 7.7599135,3.4691288 L3.7732637,3.4691288 L3.7732637,6.3296067 Z M11.1906749,7.3399744 C12.4284211,8.1706362 13.0849896,9.2498273 13.1603805,10.5775479 C13.0348881,13.2458935 11.6115277,14.6591656 8.8907764,14.8164082 L0.93608609,14.8068494 L0.93608609,0.655967 L8.4384313,0.655967 C10.8199236,0.79457 12.0767561,2.1820332 12.2084516,4.8193126 C12.1640759,6.0777317 11.8252942,6.9179523 11.1906749,7.3399744 Z" id="Fill-4" fill-rule="nonzero"></path>
            <path d="M32.6012028,6.3108237 L36.5597003,6.3108237 C37.6967663,6.291706 38.2812841,5.7726619 38.3127764,4.7532134 C38.2812841,3.821706 37.7063094,3.3370737 36.5878526,3.2993163 L32.6012028,3.2993163 L32.6012028,6.3108237 Z M38.2846242,8.6326619 L41.8089084,14.806706 L38.5671013,14.806706 L35.1835785,8.9538384 L32.6012028,8.9538384 L32.6012028,14.806706 L29.7735683,14.806706 L29.7735683,0.6462648 L35.9374871,0.6462648 C39.2360759,0.6462648 40.8856089,2.0060075 40.8856089,4.7245369 C40.8856089,6.7701251 40.018614,8.0734707 38.2846242,8.6326619 Z" id="Fill-6" fill-rule="nonzero"></path>
            <path d="M49.4799764,12.1637391 C50.7301287,12.1637391 51.7479054,11.7388494 52.5333064,10.88907 C53.3187074,10.0397685 53.7114079,8.9854303 53.7114079,7.7265332 C53.7114079,6.4681141 53.3187074,5.4137759 52.5333064,4.5639964 C51.7479054,3.714695 50.7234485,3.2898053 49.460413,3.2898053 C48.2107379,3.2898053 47.1929612,3.714695 46.4075602,4.5639964 C45.621682,5.4137759 45.2289815,6.4681141 45.2289815,7.7265332 C45.2289815,8.9854303 45.621682,10.0397685 46.4075602,10.88907 C47.1929612,11.7388494 48.2169409,12.1637391 49.4799764,12.1637391 M44.4278343,12.7726361 C43.0770018,11.416717 42.4018242,9.7343641 42.4018242,7.7265332 C42.4018242,5.712967 43.0770018,4.0291803 44.4278343,2.6761288 C45.779144,1.3230773 47.4596922,0.6463126 49.4704333,0.6463126 C51.4811744,0.6463126 53.1617226,1.3230773 54.5125551,2.6761288 C55.8633876,4.0291803 56.5390424,5.712967 56.5390424,7.7265332 C56.5390424,9.7410553 55.8633876,11.4243641 54.5125551,12.7778935 C53.1617226,14.130467 51.4811744,14.8067538 49.4704333,14.8067538 C47.4596922,14.8067538 45.779144,14.1290332 44.4278343,12.7726361" id="Fill-8" fill-rule="nonzero"></path>
            <polygon id="Fill-10" points="0.93618152 33.764912 0.93618152 19.6039928 1.8785673 19.6039928 8.0047906 26.590059 14.1405572 19.6039928 15.0829429 19.6039928 15.0829429 33.764434 12.2557856 33.764434 12.2462424 25.551971 8.0047906 30.27164 3.763816 25.551971 3.763816 33.764434"></polygon>
            <polygon id="Fill-14" points="32.4248932 33.764338 35.2434617 33.764338 35.2434617 19.5948163 32.4248932 19.5948163"></polygon>
            <path d="M45.7328597,20.0759119 C46.4557531,20.3903972 47.1309308,20.8626031 47.759347,21.4920516 L45.8740983,23.379919 C45.2461592,22.6252501 44.366281,22.2476766 43.2354181,22.2476766 C42.1045551,22.2476766 41.3816617,22.5153236 41.0676922,23.05014 C40.7532455,23.584478 40.7532455,24.040912 41.0676922,24.418485 C41.3816617,24.796059 42.1045551,25.079956 43.2354181,25.268265 C44.4292658,25.394441 45.5133673,25.787309 46.4867683,26.447824 C47.4611236,27.109294 47.9483013,28.16411 47.9483013,29.610838 C47.9483013,30.743559 47.4281998,31.719037 46.3884739,32.53775 C45.3482709,33.355508 44.1367683,33.764625 42.7549206,33.764625 C41.4413064,33.764625 40.3447988,33.575838 39.4653978,33.197787 C38.5855196,32.820691 37.831611,32.316463 37.2036719,31.687971 L39.0884434,29.799625 C39.7168597,30.554772 40.785215,30.995912 42.2930323,31.12161 C43.5493876,31.12161 44.3333572,30.853963 44.6444638,30.319147 C44.9555704,29.783853 44.9555704,29.248559 44.6444638,28.713743 C44.3333572,28.178927 43.5493876,27.849147 42.2930323,27.722493 C41.1621693,27.597272 40.1253064,27.250765 39.1829206,26.684405 C38.2405348,26.118522 37.7691033,25.142566 37.7691033,23.757971 C37.7691033,22.5057648 38.3044739,21.4996986 39.3756922,20.7416839 C40.4473876,19.9836692 41.5481896,19.6041839 42.6795297,19.6041839 C43.9926668,19.6041839 45.0099663,19.7619045 45.7328597,20.0759119" id="Fill-16"></path>
            <polygon id="Fill-17" points="50.112544 33.764434 50.112544 19.6135516 60.4988282 19.6039928 60.4988282 22.2474854 52.9397013 22.2474854 52.9397013 25.268552 58.6045135 25.268552 58.6045135 27.90153 52.9397013 27.90153 52.9397013 31.121897 60.4802191 31.121897 60.4802191 33.764434"></polygon>
            <polygon id="Fill-18" points="62.6979988 33.764434 62.6979988 19.6039928 63.6408617 19.6039928 72.4997653 28.477927 72.4997653 19.6039928 75.3278769 19.6039928 75.3278769 33.764434 74.2905368 33.764434 65.5256333 24.985133 65.5256333 33.764434"></polygon>
            <path d="M2.9671541,50.672989 C1.6129815,49.323283 0.93637238,47.631849 0.93637238,45.59821 C0.94209827,43.609974 1.6210932,41.937658 2.9719257,40.580783 C4.3227582,39.224386 5.9975805,38.546666 7.9954384,38.546666 C10.0123825,38.546666 11.7435094,39.175158 13.1883419,40.434533 L11.3035704,42.502107 C10.3420983,41.746482 9.2398648,41.369386 7.9954384,41.369386 C6.7261998,41.375599 5.7036516,41.772291 4.9273165,42.558026 C4.1514587,43.345195 3.7635297,44.352217 3.7635297,45.57957 C3.7697328,46.895342 4.1629104,47.939166 4.9416313,48.713908 C5.7208292,49.488173 6.7452861,49.874827 8.0145247,49.874827 C9.0323013,49.874827 9.8143622,49.673136 10.3611846,49.27071 L10.3611846,46.84468 L8.4759358,46.854239 L8.4759358,44.210746 L13.1883419,44.210746 L13.1883419,50.818761 C11.7497125,52.07718 10.0185856,52.707107 7.9954384,52.707107 C5.9975805,52.700416 4.3213267,52.022695 2.9671541,50.672989" id="Fill-19"></path>
            <path d="M21.4637297,42.323022 L19.3150901,47.703684 L23.5560648,47.703684 L21.4637297,42.323022 Z M14.3197297,52.70725 L19.9745216,38.546809 L22.8021561,38.546809 L28.4474049,52.697691 L25.4408363,52.70725 L24.5929277,50.535963 L18.18375,50.535963 L17.3358414,52.70725 L14.3197297,52.70725 Z" id="Fill-20" fill-rule="nonzero"></path>
            <path d="M37.8883927,39.018537 C38.6112861,39.333022 39.2864638,39.805228 39.91488,40.434677 L38.0296313,42.323022 C37.4016922,41.566919 36.521814,41.189346 35.3909511,41.189346 C34.259611,41.189346 33.5371947,41.457471 33.2232252,41.992287 C32.9087785,42.527103 32.9087785,42.983059 33.2232252,43.36111 C33.5371947,43.739162 34.259611,44.022103 35.3909511,44.21089 C36.5843216,44.337066 37.6689003,44.729934 38.6423013,45.390927 C39.6166566,46.051441 40.1033572,47.105302 40.1033572,48.552985 C40.1033572,49.686184 39.5832556,50.661184 38.5435297,51.479419 C37.5033267,52.297655 36.2923013,52.70725 34.9099764,52.70725 C33.5968394,52.70725 32.5003318,52.518463 31.6209308,52.14089 C30.7410526,51.762838 29.987144,51.259566 29.3587277,50.630596 L31.2439764,48.742728 C31.8723927,49.497397 32.9402709,49.937581 34.4485653,50.063758 C35.7049206,50.063758 36.4888901,49.796588 36.7995196,49.261294 C37.1111033,48.726478 37.1111033,48.191184 36.7995196,47.656846 C36.4888901,47.121552 35.7049206,46.791294 34.4485653,46.665596 C33.3172252,46.538941 32.2808394,46.19339 31.3379764,45.626552 C30.3955907,45.060191 29.9246363,44.085191 29.9246363,42.700118 C29.9246363,41.447912 30.4600069,40.442324 31.5312252,39.684309 C32.6024434,38.926294 33.7037226,38.546809 34.8345856,38.546809 C36.1481998,38.546809 37.1654993,38.704052 37.8883927,39.018537" id="Fill-21"></path>
            <path d="M50.1202262,39.018537 C50.8431196,39.333022 51.5182973,39.805228 52.1471907,40.434677 L50.2619419,42.323022 C49.6330485,41.566919 48.7536475,41.189346 47.6227846,41.189346 C46.4919216,41.189346 45.7690282,41.457471 45.4550587,41.992287 C45.140612,42.527103 45.140612,42.983059 45.4550587,43.36111 C45.7690282,43.739162 46.4919216,44.022103 47.6227846,44.21089 C48.8166323,44.337066 49.9007338,44.729934 50.874612,45.390927 C51.8484901,46.051441 52.3356678,47.105302 52.3356678,48.552985 C52.3356678,49.686184 51.8155663,50.661184 50.7753632,51.479419 C49.7356374,52.297655 48.5241348,52.70725 47.1418099,52.70725 C45.8286729,52.70725 44.7321653,52.518463 43.8527643,52.14089 C42.9728861,51.762838 42.2189775,51.259566 41.5910384,50.630596 L43.4758099,48.742728 C44.1042262,49.497397 45.1721044,49.937581 46.6803988,50.063758 C47.9367541,50.063758 48.7207236,49.796588 49.0318302,49.261294 C49.3429368,48.726478 49.3429368,48.191184 49.0318302,47.656846 C48.7207236,47.121552 47.9367541,46.791294 46.6803988,46.665596 C45.5495358,46.538941 44.5126729,46.19339 43.5698099,45.626552 C42.6274242,45.060191 42.1564698,44.085191 42.1564698,42.700118 C42.1564698,41.447912 42.6918404,40.442324 43.7635358,39.684309 C44.8347541,38.926294 45.9355561,38.546809 47.0668962,38.546809 C48.3800333,38.546809 49.3978099,38.704052 50.1202262,39.018537" id="Fill-22"></path>
            <polygon id="Fill-23" points="54.3382018 52.707059 54.3382018 38.556177 64.7244861 38.546618 64.7244861 41.189155 57.1658363 41.189155 57.1658363 44.211177 62.8301714 44.211177 62.8301714 46.844155 57.1658363 46.844155 57.1658363 50.064044 64.7058769 50.064044 64.7058769 52.707059"></polygon>
            <path d="M17.9424039,0.646456 L17.9424039,8.8598751 C17.9424039,9.9295075 18.2563734,10.7161986 18.8847896,11.2194707 C19.5127287,11.7236986 20.2986069,11.9746178 21.2409927,11.9746178 C22.1833785,11.9746178 22.9687795,11.7236986 23.5971957,11.2194707 C24.2251348,10.7161986 24.5395815,9.9295075 24.5395815,8.8598751 L24.5395815,0.646456 L27.367216,0.646456 L27.367216,9.6150222 C27.367216,11.0622281 26.7855612,12.289581 25.623683,13.2966031 C24.4608506,14.3036251 23.0002719,14.8068972 21.2409927,14.8068972 C19.4812363,14.8068972 18.0206577,14.3036251 16.8583023,13.2966031 C15.695947,12.289581 15.1142922,11.0622281 15.1142922,9.6150222 L15.1142922,0.646456 L17.9424039,0.646456 Z" id="Fill-24"></path>
            <polygon id="Fill-25" points="19.2959084 2.7450001 23.1284363 2.7450001 23.1284363 0.6200736 19.2959084 0.6200736"></polygon>
            <path d="M23.8150658,23.379967 L21.6664262,28.761585 L25.907878,28.761585 L23.8150658,23.379967 Z M16.6710658,33.764673 L22.3263348,19.6042317 L25.1534922,19.6042317 L30.7992181,33.755114 L27.7926495,33.764673 L26.9442638,31.593864 L20.5350861,31.593864 L19.6876546,33.764673 L16.6710658,33.764673 Z" id="Fill-12" fill-rule="nonzero"></path>
        </g>
    </g>
</svg>