<?xml version="1.0" encoding="UTF-8"?>
<svg width="27px" height="15px" viewBox="0 0 27 15" version="1.1" xmlns="http://www.w3.org/2000/svg" xmlns:xlink="http://www.w3.org/1999/xlink">
    <!-- Generator: Sketch 56.2 (81672) - https://sketch.com -->
    <title>Icon Copy 4</title>
    <desc>Created with Sketch.</desc>
    <g id="Design" stroke="none" stroke-width="1" fill="none" fill-rule="evenodd">
        <g id="CV-Page_b" transform="translate(-1195.000000, -934.000000)" fill="#44393C">
            <path d="M1213.55023,954.768912 L1201.46007,942.615735 C1200.84664,941.9995 1200.84664,941.0005 1201.46007,940.384265 L1213.55023,928.231088 C1213.85655,927.922971 1214.35393,927.922971 1214.66025,928.231088 L1215.77026,929.346824 C1216.07658,929.654941 1216.07658,930.154441 1215.77026,930.462559 L1205.34433,940.941735 C1205.03801,941.249853 1205.03801,941.750147 1205.34433,942.057471 L1215.77026,952.537441 C1216.07658,952.845559 1216.07658,953.345059 1215.77026,953.653176 L1214.66025,954.768912 C1214.35393,955.077029 1213.85655,955.077029 1213.55023,954.768912" id="Icon-Copy-4" transform="translate(1208.500000, 941.500000) scale(1, -1) rotate(-90.000000) translate(-1208.500000, -941.500000) "></path>
        </g>
    </g>
</svg>